#!OML:ASF G:\JayActor3\Patient Classification 1\Patient 1\Session 5\male.ASF
:FULLY-SPECIFIED
:DEGREES
928
root 22.6727 16.5407 -0.875928 10.3547 -72.576 -13.8022
lowerback 1.42428 -1.42475 1.21067
upperback 0.399995 -1.89005 -1.01893
thorax -0.461896 -0.94741 -1.68652
lowerneck -2.41843 -1.10105 1.87438
upperneck 6.81947 -1.86236 3.41576
head 2.59278 -0.803593 0.71184
rclavicle 5.91881e-014 -7.95139e-016
rhumerus -41.9812 -15.164 -82.7673
rradius 22.3754
rwrist 9.59594
rhand -20.2416 -8.00719
rfingers 7.12502
rthumb 6.10657 -37.8992
lclavicle 5.91881e-014 -7.95139e-016
lhumerus -38.5153 19.8468 73.8762
lradius 16.327
lwrist 11.1032
lhand -20.1504 13.1585
lfingers 7.12502
lthumb 6.19458 43.0479
rfemur -1.74165 -4.05325 25.9383
rtibia 67.9977
rfoot 30.1661 -12.2228
rtoes 13.1824
lfemur -10.5838 12.402 -20.7471
ltibia 26.4326
lfoot -13.3705 -9.54753
ltoes 9.11622
929
root 22.6419 16.5432 -0.868396 9.52 -72.6729 -13.0129
lowerback 1.51757 -1.42662 0.924026
upperback 0.477719 -1.89716 -1.0913
thorax -0.428021 -0.950458 -1.59871
lowerneck -2.41877 -1.07125 1.88155
upperneck 6.7353 -1.81789 3.40871
head 2.56406 -0.782601 0.709518
rclavicle 3.49116e-014 1.90833e-014
rhumerus -41.8695 -15.0976 -82.8487
rradius 22.51
rwrist 9.40227
rhand -20.3738 -8.01938
rfingers 7.12502
rthumb 5.97896 -37.915
lclavicle 3.49116e-014 1.90833e-014
lhumerus -38.3172 19.9083 73.9324
lradius 16.3089
lwrist 11.1038
lhand -20.1721 12.7366
lfingers 7.12502
lthumb 6.1737 42.6266
rfemur -3.23163 -4.24294 25.5871
rtibia 70.4206
rfoot 29.9545 -11.9174
rtoes 13.0213
lfemur -10.0859 12.5715 -20.945
ltibia 25.9288
lfoot -13.1976 -9.76859
ltoes 9.63224
930
root 22.6124 16.5459 -0.861325 8.69488 -72.7738 -12.232
lowerback 1.59879 -1.42354 0.645699
upperback 0.562693 -1.89799 -1.16169
thorax -0.379925 -0.950536 -1.51411
lowerneck -2.41444 -1.04205 1.88966
upperneck 6.63799 -1.77383 3.40562
head 2.53018 -0.76194 0.708265
rclavicle 3.8763e-015 -1.59028e-014
rhumerus -41.7603 -15.0075 -82.9459
rradius 22.6474
rwrist 9.19226
rhand -20.5014 -8.03503
rfingers 7.12502
rthumb 5.85572 -37.9341
lclavicle 3.8763e-015 -1.59028e-014
lhumerus -38.1105 19.9807 73.9854
lradius 16.2687
lwrist 11.0605
lhand -20.166 12.3452
lfingers 7.12502
lthumb 6.17957 42.2351
rfemur -4.73755 -4.42003 25.2547
rtibia 72.8515
rfoot 29.5184 -11.5211
rtoes 12.7498
lfemur -9.58694 12.7198 -21.1468
ltibia 25.4073
lfoot -13.0119 -9.92971
ltoes 10.1783
931
root 22.5838 16.5488 -0.85475 7.88446 -72.8814 -11.4641
lowerback 1.67448 -1.418 0.37245
upperback 0.648728 -1.89577 -1.22891
thorax -0.327613 -0.949372 -1.42937
lowerneck -2.40792 -1.0125 1.90357
upperneck 6.54266 -1.72969 3.40226
head 2.49656 -0.741132 0.705928
rclavicle 2.12948e-014 -1.11319e-014
rhumerus -41.6524 -14.8862 -83.0594
rradius 22.7717
rwrist 8.97712
rhand -20.6089 -8.04057
rfingers 7.12502
rthumb 5.75198 -37.9425
lclavicle 2.12948e-014 -1.11319e-014
lhumerus -37.9045 20.0426 74.0473
lradius 16.2382
lwrist 11.0039
lhand -20.1436 12.1646
lfingers 7.12502
lthumb 6.20122 42.0538
rfemur -6.2577 -4.57438 24.9439
rtibia 75.2869
rfoot 28.8689 -10.9804
rtoes 12.3118
lfemur -9.09128 12.8471 -21.353
ltibia 24.8737
lfoot -12.8094 -10.0218
ltoes 10.7831
932
root 22.5558 16.5523 -0.84844 7.10989 -73.0088 -10.7363
lowerback 1.75263 -1.40763 0.109775
upperback 0.729807 -1.88722 -1.29059
thorax -0.281764 -0.945372 -1.34488
lowerneck -2.39347 -0.982324 1.92128
upperneck 6.45992 -1.6854 3.39903
head 2.4657 -0.72012 0.703019
rclavicle 3.29983e-014 7.15625e-015
rhumerus -41.558 -14.7521 -83.1713
rradius 22.8799
rwrist 8.7906
rhand -20.675 -8.04259
rfingers 7.12502
rthumb 5.68814 -37.9462
lclavicle 3.29983e-014 7.15625e-015
lhumerus -37.7282 20.1639 74.0559
lradius 16.1785
lwrist 10.8082
lhand -20.0359 11.9919
lfingers 7.12502
lthumb 6.30517 41.8781
rfemur -7.78133 -4.69175 24.6612
rtibia 77.7209
rfoot 28.0147 -10.2373
rtoes 11.7156
lfemur -8.59519 12.9545 -21.5547
ltibia 24.3372
lfoot -12.5911 -10.0345
ltoes 11.4295
933
root 22.528 16.5561 -0.842136 6.38716 -73.1637 -10.0674
lowerback 1.83594 -1.3894 -0.135645
upperback 0.80628 -1.86822 -1.34523
thorax -0.243659 -0.936403 -1.26288
lowerneck -2.38377 -0.951773 1.94391
upperneck 6.39782 -1.6418 3.3922
head 2.44254 -0.699097 0.69811
rclavicle -3.66012e-014 -3.18055e-015
rhumerus -41.4749 -14.6227 -83.269
rradius 22.9656
rwrist 8.65179
rhand -20.697 -8.04962
rfingers 7.12502
rthumb 5.66693 -37.9538
lclavicle -3.66012e-014 -3.18055e-015
lhumerus -37.5762 20.3141 74.0371
lradius 16.1087
lwrist 10.5274
lhand -19.8656 11.9003
lfingers 7.12502
lthumb 6.46956 41.7815
rfemur -9.30389 -4.7677 24.41
rtibia 80.1498
rfoot 26.9736 -9.2329
rtoes 10.8693
lfemur -8.09977 13.035 -21.7475
ltibia 23.8056
lfoot -12.3607 -9.95585
ltoes 12.1085
